<svg xmlns="http://www.w3.org/2000/svg" xmlns:xlink="http://www.w3.org/1999/xlink" width="80" zoomAndPan="magnify" viewBox="0 0 375 374.999991" height="30" preserveAspectRatio="xMidYMid meet" version="1.0"><defs><filter x="0%" y="0%" width="100%" height="100%" id="c061aeb621"><feColorMatrix values="0 0 0 0 1 0 0 0 0 1 0 0 0 0 1 0 0 0 1 0" color-interpolation-filters="sRGB"/></filter><g/><clipPath id="e3f53172a2"><path d="M 88 154.738281 L 99 154.738281 L 99 219.988281 L 88 219.988281 Z M 88 154.738281 " clip-rule="nonzero"/></clipPath><clipPath id="eda82b6f19"><path d="M 102 154.738281 L 117 154.738281 L 117 219.988281 L 102 219.988281 Z M 102 154.738281 " clip-rule="nonzero"/></clipPath><mask id="70454f415e"><g filter="url(#c061aeb621)"><rect x="-37.5" width="450" fill="#000000" y="-37.499999" height="449.999989" fill-opacity="0.3"/></g></mask><clipPath id="32c9b217bc"><path d="M 0.28125 0.761719 L 0.761719 0.761719 L 0.761719 1.480469 L 0.28125 1.480469 Z M 0.28125 0.761719 " clip-rule="nonzero"/></clipPath><clipPath id="25d08fe5c1"><rect x="0" width="1" y="0" height="2"/></clipPath><mask id="2efb10e518"><g filter="url(#c061aeb621)"><rect x="-37.5" width="450" fill="#000000" y="-37.499999" height="449.999989" fill-opacity="0.3"/></g></mask><clipPath id="359c4d424e"><path d="M 0.71875 0.71875 L 6 0.71875 L 6 14.878906 L 0.71875 14.878906 Z M 0.71875 0.71875 " clip-rule="nonzero"/></clipPath><clipPath id="366c6d0e63"><rect x="0" width="6" y="0" height="15"/></clipPath><mask id="9ed7e87db9"><g filter="url(#c061aeb621)"><rect x="-37.5" width="450" fill="#000000" y="-37.499999" height="449.999989" fill-opacity="0.3"/></g></mask><clipPath id="b9c2e6f5bc"><path d="M 0.28125 0.71875 L 5.558594 0.71875 L 5.558594 14.878906 L 0.28125 14.878906 Z M 0.28125 0.71875 " clip-rule="nonzero"/></clipPath><clipPath id="ca70f39be3"><rect x="0" width="6" y="0" height="15"/></clipPath><clipPath id="b6fd4f5b9f"><path d="M 68.851562 187.5 L 118.351562 187.5 L 118.351562 204.75 L 68.851562 204.75 Z M 68.851562 187.5 " clip-rule="nonzero"/></clipPath><clipPath id="f9a21b84aa"><path d="M 111 189 L 118.351562 189 L 118.351562 193 L 111 193 Z M 111 189 " clip-rule="nonzero"/></clipPath><clipPath id="1ddde87f98"><path d="M 68.851562 198 L 77 198 L 77 202 L 68.851562 202 Z M 68.851562 198 " clip-rule="nonzero"/></clipPath></defs><g clip-path="url(#e3f53172a2)"><path fill="#4d433a" d="M 91.980469 181.851562 C 91.980469 185.179688 88.785156 208.339844 90.59375 216.75 C 91.351562 220.265625 95.300781 219.808594 95.957031 216.75 C 97.628906 208.992188 94.636719 201.847656 94.636719 181.667969 C 94.636719 178.90625 96.769531 178.835938 97.921875 175.269531 C 98.953125 172.089844 97.5 154.949219 97.03125 154.949219 C 96.496094 154.949219 96.757812 169.792969 95.742188 169.792969 C 94.722656 169.792969 95.238281 155.148438 94.59375 154.949219 C 93.945312 154.746094 94.417969 169.792969 93.222656 169.792969 C 92.015625 169.792969 92.800781 154.949219 92.152344 154.949219 C 91.507812 154.949219 91.6875 169.792969 90.703125 169.792969 C 89.617188 169.792969 90.199219 154.949219 89.714844 154.949219 C 88.890625 154.949219 87.925781 171.066406 88.4375 174.472656 C 88.953125 177.878906 91.980469 178.523438 91.980469 181.851562 Z M 91.980469 181.851562 " fill-opacity="1" fill-rule="nonzero"/></g><g clip-path="url(#eda82b6f19)"><path fill="#4d433a" d="M 108.378906 181.136719 C 108.378906 201.402344 105.125 209.640625 106.996094 216.792969 C 107.886719 220.203125 111.699219 219.800781 112.359375 216.792969 C 113.871094 209.863281 111.039062 200.992188 111.039062 181.136719 C 111.039062 178.828125 116.8125 179.222656 116.8125 171.324219 C 116.8125 161.4375 113.136719 154.894531 109.636719 154.894531 C 106.367188 154.894531 102.816406 162.070312 102.816406 171.324219 C 102.816406 178.742188 108.378906 179.234375 108.378906 181.136719 Z M 108.378906 181.136719 " fill-opacity="1" fill-rule="nonzero"/></g><path fill="#4d433a" d="M 77.695312 189.261719 C 77.695312 205.351562 74.4375 210.984375 76.308594 216.667969 C 77.199219 219.375 81.015625 219.054688 81.671875 216.667969 C 83.1875 211.164062 80.351562 207.125 80.351562 189.476562 C 80.351562 187.320312 83.527344 184.308594 83.527344 178.746094 C 83.527344 168.855469 82.085938 155.414062 78.949219 155.414062 C 75.941406 155.414062 76.628906 172.742188 76.628906 182.222656 C 76.628906 186.292969 77.695312 187.351562 77.695312 189.261719 Z M 77.695312 189.261719 " fill-opacity="1" fill-rule="nonzero"/><g mask="url(#70454f415e)"><g transform="matrix(1, 0, 0, 1, 89, 167)"><g clip-path="url(#25d08fe5c1)"><g clip-path="url(#32c9b217bc)"><path fill="#4d433a" d="M 0.515625 1.203125 C 0.507812 1.308594 0.460938 1.382812 0.40625 1.371094 C 0.351562 1.355469 0.3125 1.261719 0.320312 1.15625 C 0.328125 1.054688 0.375 0.980469 0.429688 0.992188 C 0.484375 1.003906 0.523438 1.101562 0.515625 1.203125 Z M 0.515625 1.203125 " fill-opacity="0.777" fill-rule="nonzero"/></g></g></g></g><g mask="url(#2efb10e518)"><g transform="matrix(1, 0, 0, 1, 90, 204)"><g clip-path="url(#366c6d0e63)"><g clip-path="url(#359c4d424e)"><path fill="#4d433a" d="M 0.960938 12.640625 C 1.285156 14.097656 2.65625 15.121094 4.070312 14.457031 C 5.640625 13.722656 5.867188 11.289062 5.878906 9.972656 C 5.898438 7.632812 5.652344 5.902344 5.371094 3.613281 C 5.28125 2.902344 5.140625 1.578125 4.996094 0.925781 C 4.992188 2.769531 5.28125 4.558594 4.9375 6.394531 C 4.425781 8.117188 4.992188 11.269531 3.34375 12.425781 C 2.523438 12.996094 1.054688 11.863281 0.960938 12.640625 Z M 0.960938 12.640625 " fill-opacity="1" fill-rule="nonzero"/></g></g></g></g><g mask="url(#9ed7e87db9)"><g transform="matrix(1, 0, 0, 1, 107, 204)"><g clip-path="url(#ca70f39be3)"><g clip-path="url(#b9c2e6f5bc)"><path fill="#4d433a" d="M 0.46875 12.640625 C 0.792969 14.097656 2.164062 15.121094 3.578125 14.457031 C 5.148438 13.722656 5.375 11.289062 5.386719 9.972656 C 5.402344 7.632812 5.160156 5.902344 4.878906 3.613281 C 4.789062 2.902344 4.648438 1.578125 4.503906 0.925781 C 4.5 2.769531 4.789062 4.558594 4.441406 6.394531 C 3.929688 8.117188 4.5 11.269531 2.851562 12.425781 C 2.03125 12.996094 0.558594 11.863281 0.46875 12.640625 Z M 0.46875 12.640625 " fill-opacity="1" fill-rule="nonzero"/></g></g></g></g><g clip-path="url(#b6fd4f5b9f)"><path fill="#e79049" d="M 78.398438 187.523438 C 76.90625 187.523438 75.40625 187.613281 73.9375 187.785156 C 73.828125 187.8125 73.621094 187.851562 73.378906 187.890625 C 71.894531 188.148438 69.195312 188.617188 69.007812 190.519531 C 68.933594 193.933594 68.894531 195.84375 68.859375 199.101562 C 68.890625 199.085938 68.921875 199.070312 68.953125 199.054688 C 69.011719 199.023438 69.046875 199.007812 69.078125 198.992188 C 70.613281 198.300781 73.582031 198.15625 75.800781 198.15625 C 76.234375 198.15625 76.496094 198.160156 76.496094 198.160156 L 76.910156 198.171875 L 76.910156 198.175781 C 83.308594 198.285156 88.375 199.878906 93.277344 201.421875 C 98.308594 203.003906 103.511719 204.640625 110.101562 204.640625 C 110.988281 204.640625 111.890625 204.609375 112.789062 204.550781 C 114.8125 204.3125 117.757812 203.402344 117.929688 202.140625 L 117.957031 198.890625 C 117.976562 196.9375 117.996094 194.929688 118.03125 192.808594 C 117.132812 193.226562 115.515625 193.4375 113.203125 193.4375 C 112.027344 193.4375 111.050781 193.382812 110.777344 193.363281 L 110.382812 193.335938 L 110.382812 193.277344 C 105.011719 192.976562 100.113281 191.671875 95.375 190.414062 C 90.023438 188.992188 84.492188 187.523438 78.398438 187.523438 " fill-opacity="1" fill-rule="nonzero"/></g><path fill="#e79049" d="M 114.628906 189.773438 L 114.59375 188.101562 C 114.269531 188.085938 113.960938 188.074219 113.675781 188.074219 C 111.773438 188.074219 111.234375 188.511719 111.195312 188.628906 C 111.191406 188.667969 111.195312 188.71875 111.199219 188.773438 C 111.214844 188.882812 111.519531 189.316406 114.628906 189.773438 " fill-opacity="1" fill-rule="nonzero"/><path fill="#e79049" d="M 72.652344 202.011719 L 72.625 203.574219 C 75.011719 203.558594 75.691406 203.113281 75.875 202.917969 C 75.90625 202.882812 75.921875 202.855469 75.929688 202.839844 C 75.929688 202.816406 75.925781 202.796875 75.917969 202.769531 C 75.859375 202.632812 75.472656 202.253906 72.652344 202.011719 " fill-opacity="1" fill-rule="nonzero"/><g clip-path="url(#f9a21b84aa)"><path fill="#e79049" d="M 113.203125 192.609375 C 116.476562 192.609375 117.859375 192.171875 118.066406 191.765625 C 117.976562 191.636719 117.570312 191.101562 115.234375 190.707031 C 115.105469 190.683594 114.964844 190.660156 114.820312 190.640625 L 114.703125 190.621094 C 113.363281 190.429688 112.386719 190.230469 111.714844 190.015625 C 111.515625 189.949219 111.34375 189.882812 111.191406 189.8125 L 111.207031 192.558594 C 111.613281 192.578125 112.355469 192.609375 113.203125 192.609375 " fill-opacity="1" fill-rule="nonzero"/></g><g clip-path="url(#1ddde87f98)"><path fill="#e79049" d="M 71.222656 199.316406 C 70.207031 199.488281 69.058594 199.679688 68.863281 200.230469 L 68.875 200.25 C 68.945312 200.359375 69.425781 200.902344 72.058594 201.128906 L 72.289062 201.148438 C 74.148438 201.289062 75.316406 201.484375 75.972656 201.777344 L 76.058594 198.996094 C 74.574219 199.003906 73.078125 199.089844 71.574219 199.253906 L 71.222656 199.316406 " fill-opacity="1" fill-rule="nonzero"/></g><g fill="#e79049" fill-opacity="1"><g transform="translate(120.245219, 184.796443)"><g><path d="M 7.640625 0.171875 C 6.460938 0.171875 5.40625 -0.0351562 4.46875 -0.453125 C 3.539062 -0.867188 2.8125 -1.445312 2.28125 -2.1875 C 1.75 -2.9375 1.476562 -3.796875 1.46875 -4.765625 L 3.953125 -4.765625 C 4.035156 -3.929688 4.378906 -3.226562 4.984375 -2.65625 C 5.585938 -2.082031 6.472656 -1.796875 7.640625 -1.796875 C 8.753906 -1.796875 9.628906 -2.070312 10.265625 -2.625 C 10.910156 -3.1875 11.234375 -3.898438 11.234375 -4.765625 C 11.234375 -5.453125 11.046875 -6.007812 10.671875 -6.4375 C 10.296875 -6.863281 9.820312 -7.1875 9.25 -7.40625 C 8.6875 -7.632812 7.925781 -7.875 6.96875 -8.125 C 5.789062 -8.4375 4.847656 -8.742188 4.140625 -9.046875 C 3.429688 -9.359375 2.820312 -9.84375 2.3125 -10.5 C 1.8125 -11.15625 1.5625 -12.039062 1.5625 -13.15625 C 1.5625 -14.125 1.804688 -14.984375 2.296875 -15.734375 C 2.796875 -16.492188 3.492188 -17.078125 4.390625 -17.484375 C 5.296875 -17.898438 6.328125 -18.109375 7.484375 -18.109375 C 9.160156 -18.109375 10.53125 -17.6875 11.59375 -16.84375 C 12.664062 -16.007812 13.269531 -14.898438 13.40625 -13.515625 L 10.84375 -13.515625 C 10.757812 -14.191406 10.398438 -14.789062 9.765625 -15.3125 C 9.140625 -15.84375 8.300781 -16.109375 7.25 -16.109375 C 6.28125 -16.109375 5.488281 -15.851562 4.875 -15.34375 C 4.257812 -14.84375 3.953125 -14.140625 3.953125 -13.234375 C 3.953125 -12.578125 4.132812 -12.046875 4.5 -11.640625 C 4.863281 -11.234375 5.316406 -10.921875 5.859375 -10.703125 C 6.398438 -10.492188 7.15625 -10.25 8.125 -9.96875 C 9.300781 -9.644531 10.25 -9.320312 10.96875 -9 C 11.6875 -8.6875 12.300781 -8.203125 12.8125 -7.546875 C 13.332031 -6.890625 13.59375 -6 13.59375 -4.875 C 13.59375 -4 13.359375 -3.175781 12.890625 -2.40625 C 12.429688 -1.632812 11.75 -1.007812 10.84375 -0.53125 C 9.9375 -0.0625 8.867188 0.171875 7.640625 0.171875 Z M 7.640625 0.171875 "/></g></g></g><g fill="#e79049" fill-opacity="1"><g transform="translate(135.289358, 184.796443)"><g><path d="M 14.4375 -14.046875 L 14.4375 0 L 12.109375 0 L 12.109375 -2.078125 C 11.660156 -1.359375 11.035156 -0.796875 10.234375 -0.390625 C 9.441406 0.00390625 8.566406 0.203125 7.609375 0.203125 C 6.515625 0.203125 5.53125 -0.0195312 4.65625 -0.46875 C 3.789062 -0.925781 3.101562 -1.609375 2.59375 -2.515625 C 2.09375 -3.421875 1.84375 -4.523438 1.84375 -5.828125 L 1.84375 -14.046875 L 4.15625 -14.046875 L 4.15625 -6.125 C 4.15625 -4.738281 4.503906 -3.675781 5.203125 -2.9375 C 5.898438 -2.195312 6.859375 -1.828125 8.078125 -1.828125 C 9.328125 -1.828125 10.3125 -2.207031 11.03125 -2.96875 C 11.75 -3.738281 12.109375 -4.859375 12.109375 -6.328125 L 12.109375 -14.046875 Z M 14.4375 -14.046875 "/></g></g></g><g fill="#e79049" fill-opacity="1"><g transform="translate(151.691831, 184.796443)"><g><path d="M 4.3125 -11.765625 C 4.71875 -12.566406 5.300781 -13.191406 6.0625 -13.640625 C 6.820312 -14.085938 7.75 -14.3125 8.84375 -14.3125 L 8.84375 -11.890625 L 8.234375 -11.890625 C 5.617188 -11.890625 4.3125 -10.472656 4.3125 -7.640625 L 4.3125 0 L 1.96875 0 L 1.96875 -14.046875 L 4.3125 -14.046875 Z M 4.3125 -11.765625 "/></g></g></g><g fill="#e79049" fill-opacity="1"><g transform="translate(161.2514, 184.796443)"><g><path d="M 3.171875 -16.328125 C 2.734375 -16.328125 2.359375 -16.476562 2.046875 -16.78125 C 1.742188 -17.09375 1.59375 -17.472656 1.59375 -17.921875 C 1.59375 -18.367188 1.742188 -18.742188 2.046875 -19.046875 C 2.359375 -19.359375 2.734375 -19.515625 3.171875 -19.515625 C 3.609375 -19.515625 3.972656 -19.359375 4.265625 -19.046875 C 4.566406 -18.742188 4.71875 -18.367188 4.71875 -17.921875 C 4.71875 -17.472656 4.566406 -17.09375 4.265625 -16.78125 C 3.972656 -16.476562 3.609375 -16.328125 3.171875 -16.328125 Z M 4.3125 -14.046875 L 4.3125 0 L 1.96875 0 L 1.96875 -14.046875 Z M 4.3125 -14.046875 "/></g></g></g><g fill="#e79049" fill-opacity="1"><g transform="translate(167.556099, 184.796443)"><g/></g></g><g fill="#e79049" fill-opacity="1"><g transform="translate(174.399002, 184.796443)"><g><path d="M 11.390625 0 L 7.125 -7.3125 L 4.3125 -7.3125 L 4.3125 0 L 1.96875 0 L 1.96875 -17.875 L 7.75 -17.875 C 9.09375 -17.875 10.226562 -17.640625 11.15625 -17.171875 C 12.09375 -16.710938 12.789062 -16.085938 13.25 -15.296875 C 13.71875 -14.515625 13.953125 -13.617188 13.953125 -12.609375 C 13.953125 -11.378906 13.597656 -10.296875 12.890625 -9.359375 C 12.179688 -8.421875 11.113281 -7.796875 9.6875 -7.484375 L 14.171875 0 Z M 4.3125 -9.171875 L 7.75 -9.171875 C 9.007812 -9.171875 9.953125 -9.484375 10.578125 -10.109375 C 11.210938 -10.734375 11.53125 -11.566406 11.53125 -12.609375 C 11.53125 -13.671875 11.21875 -14.492188 10.59375 -15.078125 C 9.976562 -15.660156 9.03125 -15.953125 7.75 -15.953125 L 4.3125 -15.953125 Z M 4.3125 -9.171875 "/></g></g></g><g fill="#e79049" fill-opacity="1"><g transform="translate(189.981356, 184.796443)"><g><path d="M 14.796875 -7.5625 C 14.796875 -7.113281 14.769531 -6.644531 14.71875 -6.15625 L 3.484375 -6.15625 C 3.566406 -4.769531 4.039062 -3.6875 4.90625 -2.90625 C 5.769531 -2.132812 6.816406 -1.75 8.046875 -1.75 C 9.054688 -1.75 9.898438 -1.984375 10.578125 -2.453125 C 11.253906 -2.921875 11.726562 -3.546875 12 -4.328125 L 14.515625 -4.328125 C 14.140625 -2.984375 13.382812 -1.882812 12.25 -1.03125 C 11.125 -0.1875 9.722656 0.234375 8.046875 0.234375 C 6.710938 0.234375 5.519531 -0.0625 4.46875 -0.65625 C 3.414062 -1.257812 2.59375 -2.113281 2 -3.21875 C 1.40625 -4.320312 1.109375 -5.597656 1.109375 -7.046875 C 1.109375 -8.503906 1.394531 -9.78125 1.96875 -10.875 C 2.550781 -11.96875 3.367188 -12.804688 4.421875 -13.390625 C 5.472656 -13.984375 6.679688 -14.28125 8.046875 -14.28125 C 9.378906 -14.28125 10.554688 -13.988281 11.578125 -13.40625 C 12.609375 -12.820312 13.398438 -12.019531 13.953125 -11 C 14.515625 -9.988281 14.796875 -8.84375 14.796875 -7.5625 Z M 12.390625 -8.046875 C 12.390625 -8.941406 12.191406 -9.707031 11.796875 -10.34375 C 11.398438 -10.988281 10.863281 -11.476562 10.1875 -11.8125 C 9.507812 -12.144531 8.765625 -12.3125 7.953125 -12.3125 C 6.765625 -12.3125 5.753906 -11.929688 4.921875 -11.171875 C 4.097656 -10.421875 3.628906 -9.378906 3.515625 -8.046875 Z M 12.390625 -8.046875 "/></g></g></g><g fill="#e79049" fill-opacity="1"><g transform="translate(205.871247, 184.796443)"><g><path d="M 6.953125 0.234375 C 5.867188 0.234375 4.898438 0.0507812 4.046875 -0.3125 C 3.191406 -0.6875 2.515625 -1.203125 2.015625 -1.859375 C 1.523438 -2.515625 1.253906 -3.269531 1.203125 -4.125 L 3.609375 -4.125 C 3.679688 -3.425781 4.007812 -2.851562 4.59375 -2.40625 C 5.1875 -1.96875 5.960938 -1.75 6.921875 -1.75 C 7.804688 -1.75 8.503906 -1.941406 9.015625 -2.328125 C 9.535156 -2.722656 9.796875 -3.222656 9.796875 -3.828125 C 9.796875 -4.441406 9.519531 -4.894531 8.96875 -5.1875 C 8.425781 -5.488281 7.582031 -5.785156 6.4375 -6.078125 C 5.394531 -6.347656 4.539062 -6.625 3.875 -6.90625 C 3.21875 -7.1875 2.65625 -7.601562 2.1875 -8.15625 C 1.71875 -8.71875 1.484375 -9.453125 1.484375 -10.359375 C 1.484375 -11.078125 1.695312 -11.734375 2.125 -12.328125 C 2.550781 -12.929688 3.15625 -13.40625 3.9375 -13.75 C 4.726562 -14.101562 5.628906 -14.28125 6.640625 -14.28125 C 8.191406 -14.28125 9.445312 -13.882812 10.40625 -13.09375 C 11.363281 -12.3125 11.878906 -11.238281 11.953125 -9.875 L 9.609375 -9.875 C 9.554688 -10.601562 9.257812 -11.191406 8.71875 -11.640625 C 8.1875 -12.085938 7.46875 -12.3125 6.5625 -12.3125 C 5.726562 -12.3125 5.0625 -12.128906 4.5625 -11.765625 C 4.070312 -11.410156 3.828125 -10.941406 3.828125 -10.359375 C 3.828125 -9.898438 3.972656 -9.519531 4.265625 -9.21875 C 4.566406 -8.914062 4.941406 -8.675781 5.390625 -8.5 C 5.847656 -8.320312 6.476562 -8.117188 7.28125 -7.890625 C 8.289062 -7.617188 9.109375 -7.347656 9.734375 -7.078125 C 10.367188 -6.816406 10.910156 -6.421875 11.359375 -5.890625 C 11.816406 -5.367188 12.054688 -4.679688 12.078125 -3.828125 C 12.078125 -3.054688 11.863281 -2.363281 11.4375 -1.75 C 11.007812 -1.132812 10.40625 -0.648438 9.625 -0.296875 C 8.851562 0.0546875 7.960938 0.234375 6.953125 0.234375 Z M 6.953125 0.234375 "/></g></g></g><g fill="#e79049" fill-opacity="1"><g transform="translate(219.249515, 184.796443)"><g><path d="M 4.828125 -12.125 L 4.828125 -3.84375 C 4.828125 -3.164062 4.96875 -2.679688 5.25 -2.390625 C 5.539062 -2.109375 6.046875 -1.96875 6.765625 -1.96875 L 8.484375 -1.96875 L 8.484375 0 L 6.390625 0 C 5.085938 0 4.109375 -0.296875 3.453125 -0.890625 C 2.804688 -1.492188 2.484375 -2.476562 2.484375 -3.84375 L 2.484375 -12.125 L 0.671875 -12.125 L 0.671875 -14.046875 L 2.484375 -14.046875 L 2.484375 -17.59375 L 4.828125 -17.59375 L 4.828125 -14.046875 L 8.484375 -14.046875 L 8.484375 -12.125 Z M 4.828125 -12.125 "/></g></g></g><g fill="#e79049" fill-opacity="1"><g transform="translate(228.578418, 184.796443)"><g><path d="M 1.109375 -7.078125 C 1.109375 -8.515625 1.394531 -9.773438 1.96875 -10.859375 C 2.550781 -11.941406 3.347656 -12.78125 4.359375 -13.375 C 5.378906 -13.976562 6.515625 -14.28125 7.765625 -14.28125 C 8.992188 -14.28125 10.0625 -14.015625 10.96875 -13.484375 C 11.875 -12.953125 12.550781 -12.285156 13 -11.484375 L 13 -14.046875 L 15.359375 -14.046875 L 15.359375 0 L 13 0 L 13 -2.609375 C 12.539062 -1.796875 11.851562 -1.117188 10.9375 -0.578125 C 10.019531 -0.0351562 8.957031 0.234375 7.75 0.234375 C 6.5 0.234375 5.367188 -0.0703125 4.359375 -0.6875 C 3.347656 -1.300781 2.550781 -2.164062 1.96875 -3.28125 C 1.394531 -4.394531 1.109375 -5.660156 1.109375 -7.078125 Z M 13 -7.046875 C 13 -8.109375 12.785156 -9.03125 12.359375 -9.8125 C 11.929688 -10.601562 11.351562 -11.207031 10.625 -11.625 C 9.894531 -12.039062 9.097656 -12.25 8.234375 -12.25 C 7.359375 -12.25 6.5625 -12.046875 5.84375 -11.640625 C 5.125 -11.234375 4.550781 -10.632812 4.125 -9.84375 C 3.695312 -9.0625 3.484375 -8.140625 3.484375 -7.078125 C 3.484375 -6.003906 3.695312 -5.066406 4.125 -4.265625 C 4.550781 -3.472656 5.125 -2.867188 5.84375 -2.453125 C 6.5625 -2.035156 7.359375 -1.828125 8.234375 -1.828125 C 9.097656 -1.828125 9.894531 -2.035156 10.625 -2.453125 C 11.351562 -2.867188 11.929688 -3.472656 12.359375 -4.265625 C 12.785156 -5.066406 13 -5.992188 13 -7.046875 Z M 13 -7.046875 "/></g></g></g><g fill="#e79049" fill-opacity="1"><g transform="translate(245.903524, 184.796443)"><g><path d="M 14.4375 -14.046875 L 14.4375 0 L 12.109375 0 L 12.109375 -2.078125 C 11.660156 -1.359375 11.035156 -0.796875 10.234375 -0.390625 C 9.441406 0.00390625 8.566406 0.203125 7.609375 0.203125 C 6.515625 0.203125 5.53125 -0.0195312 4.65625 -0.46875 C 3.789062 -0.925781 3.101562 -1.609375 2.59375 -2.515625 C 2.09375 -3.421875 1.84375 -4.523438 1.84375 -5.828125 L 1.84375 -14.046875 L 4.15625 -14.046875 L 4.15625 -6.125 C 4.15625 -4.738281 4.503906 -3.675781 5.203125 -2.9375 C 5.898438 -2.195312 6.859375 -1.828125 8.078125 -1.828125 C 9.328125 -1.828125 10.3125 -2.207031 11.03125 -2.96875 C 11.75 -3.738281 12.109375 -4.859375 12.109375 -6.328125 L 12.109375 -14.046875 Z M 14.4375 -14.046875 "/></g></g></g><g fill="#e79049" fill-opacity="1"><g transform="translate(262.305997, 184.796443)"><g><path d="M 4.3125 -11.765625 C 4.71875 -12.566406 5.300781 -13.191406 6.0625 -13.640625 C 6.820312 -14.085938 7.75 -14.3125 8.84375 -14.3125 L 8.84375 -11.890625 L 8.234375 -11.890625 C 5.617188 -11.890625 4.3125 -10.472656 4.3125 -7.640625 L 4.3125 0 L 1.96875 0 L 1.96875 -14.046875 L 4.3125 -14.046875 Z M 4.3125 -11.765625 "/></g></g></g><g fill="#e79049" fill-opacity="1"><g transform="translate(271.865566, 184.796443)"><g><path d="M 1.109375 -7.078125 C 1.109375 -8.515625 1.394531 -9.773438 1.96875 -10.859375 C 2.550781 -11.941406 3.347656 -12.78125 4.359375 -13.375 C 5.378906 -13.976562 6.515625 -14.28125 7.765625 -14.28125 C 8.992188 -14.28125 10.0625 -14.015625 10.96875 -13.484375 C 11.875 -12.953125 12.550781 -12.285156 13 -11.484375 L 13 -14.046875 L 15.359375 -14.046875 L 15.359375 0 L 13 0 L 13 -2.609375 C 12.539062 -1.796875 11.851562 -1.117188 10.9375 -0.578125 C 10.019531 -0.0351562 8.957031 0.234375 7.75 0.234375 C 6.5 0.234375 5.367188 -0.0703125 4.359375 -0.6875 C 3.347656 -1.300781 2.550781 -2.164062 1.96875 -3.28125 C 1.394531 -4.394531 1.109375 -5.660156 1.109375 -7.078125 Z M 13 -7.046875 C 13 -8.109375 12.785156 -9.03125 12.359375 -9.8125 C 11.929688 -10.601562 11.351562 -11.207031 10.625 -11.625 C 9.894531 -12.039062 9.097656 -12.25 8.234375 -12.25 C 7.359375 -12.25 6.5625 -12.046875 5.84375 -11.640625 C 5.125 -11.234375 4.550781 -10.632812 4.125 -9.84375 C 3.695312 -9.0625 3.484375 -8.140625 3.484375 -7.078125 C 3.484375 -6.003906 3.695312 -5.066406 4.125 -4.265625 C 4.550781 -3.472656 5.125 -2.867188 5.84375 -2.453125 C 6.5625 -2.035156 7.359375 -1.828125 8.234375 -1.828125 C 9.097656 -1.828125 9.894531 -2.035156 10.625 -2.453125 C 11.351562 -2.867188 11.929688 -3.472656 12.359375 -4.265625 C 12.785156 -5.066406 13 -5.992188 13 -7.046875 Z M 13 -7.046875 "/></g></g></g><g fill="#e79049" fill-opacity="1"><g transform="translate(289.190673, 184.796443)"><g><path d="M 8.828125 -14.3125 C 10.535156 -14.3125 11.914062 -13.789062 12.96875 -12.75 C 14.03125 -11.71875 14.5625 -10.226562 14.5625 -8.28125 L 14.5625 0 L 12.25 0 L 12.25 -7.953125 C 12.25 -9.347656 11.898438 -10.414062 11.203125 -11.15625 C 10.503906 -11.90625 9.546875 -12.28125 8.328125 -12.28125 C 7.097656 -12.28125 6.117188 -11.894531 5.390625 -11.125 C 4.671875 -10.351562 4.3125 -9.234375 4.3125 -7.765625 L 4.3125 0 L 1.96875 0 L 1.96875 -14.046875 L 4.3125 -14.046875 L 4.3125 -12.046875 C 4.769531 -12.765625 5.394531 -13.320312 6.1875 -13.71875 C 6.988281 -14.113281 7.867188 -14.3125 8.828125 -14.3125 Z M 8.828125 -14.3125 "/></g></g></g><g fill="#e79049" fill-opacity="1"><g transform="translate(305.593145, 184.796443)"><g><path d="M 4.828125 -12.125 L 4.828125 -3.84375 C 4.828125 -3.164062 4.96875 -2.679688 5.25 -2.390625 C 5.539062 -2.109375 6.046875 -1.96875 6.765625 -1.96875 L 8.484375 -1.96875 L 8.484375 0 L 6.390625 0 C 5.085938 0 4.109375 -0.296875 3.453125 -0.890625 C 2.804688 -1.492188 2.484375 -2.476562 2.484375 -3.84375 L 2.484375 -12.125 L 0.671875 -12.125 L 0.671875 -14.046875 L 2.484375 -14.046875 L 2.484375 -17.59375 L 4.828125 -17.59375 L 4.828125 -14.046875 L 8.484375 -14.046875 L 8.484375 -12.125 Z M 4.828125 -12.125 "/></g></g></g><g fill="#4d433a" fill-opacity="1"><g transform="translate(152.704247, 200.783069)"><g><path d="M 6.90625 -1.765625 C 6.90625 -1.398438 6.832031 -1.101562 6.6875 -0.875 C 6.550781 -0.644531 6.359375 -0.460938 6.109375 -0.328125 C 5.867188 -0.203125 5.582031 -0.113281 5.25 -0.0625 C 4.914062 -0.0195312 4.554688 0 4.171875 0 L 1.046875 0 C 0.984375 0 0.9375 -0.015625 0.90625 -0.046875 C 0.875 -0.0859375 0.859375 -0.132812 0.859375 -0.1875 L 0.859375 -5.828125 C 0.859375 -5.890625 0.878906 -5.9375 0.921875 -5.96875 C 0.960938 -6.007812 1.015625 -6.03125 1.078125 -6.03125 L 3.546875 -6.03125 C 3.804688 -6.03125 4.0625 -6.023438 4.3125 -6.015625 C 4.570312 -6.015625 4.8125 -6 5.03125 -5.96875 C 5.257812 -5.9375 5.46875 -5.890625 5.65625 -5.828125 C 5.84375 -5.765625 6.003906 -5.675781 6.140625 -5.5625 C 6.285156 -5.445312 6.394531 -5.304688 6.46875 -5.140625 C 6.550781 -4.972656 6.59375 -4.765625 6.59375 -4.515625 C 6.59375 -4.304688 6.5625 -4.128906 6.5 -3.984375 C 6.445312 -3.847656 6.375 -3.726562 6.28125 -3.625 C 6.195312 -3.53125 6.097656 -3.453125 5.984375 -3.390625 C 5.878906 -3.335938 5.773438 -3.296875 5.671875 -3.265625 C 5.578125 -3.242188 5.488281 -3.226562 5.40625 -3.21875 C 5.320312 -3.21875 5.257812 -3.21875 5.21875 -3.21875 L 5.1875 -3.21875 C 5.40625 -3.195312 5.613281 -3.15625 5.8125 -3.09375 C 6.019531 -3.039062 6.203125 -2.957031 6.359375 -2.84375 C 6.523438 -2.738281 6.65625 -2.597656 6.75 -2.421875 C 6.851562 -2.242188 6.90625 -2.023438 6.90625 -1.765625 Z M 6.140625 -4.515625 C 6.140625 -4.703125 6.109375 -4.863281 6.046875 -5 C 5.984375 -5.144531 5.863281 -5.265625 5.6875 -5.359375 C 5.519531 -5.460938 5.28125 -5.539062 4.96875 -5.59375 C 4.65625 -5.644531 4.25 -5.671875 3.75 -5.671875 L 1.328125 -5.671875 L 1.328125 -3.34375 L 3.890625 -3.34375 C 4.273438 -3.34375 4.609375 -3.359375 4.890625 -3.390625 C 5.171875 -3.421875 5.40625 -3.476562 5.59375 -3.5625 C 5.78125 -3.65625 5.914062 -3.773438 6 -3.921875 C 6.09375 -4.078125 6.140625 -4.273438 6.140625 -4.515625 Z M 6.453125 -1.765625 C 6.453125 -2.015625 6.390625 -2.222656 6.265625 -2.390625 C 6.148438 -2.554688 5.976562 -2.6875 5.75 -2.78125 C 5.53125 -2.875 5.257812 -2.941406 4.9375 -2.984375 C 4.625 -3.023438 4.273438 -3.046875 3.890625 -3.046875 L 1.328125 -3.046875 L 1.328125 -0.359375 L 4.375 -0.359375 C 4.851562 -0.359375 5.234375 -0.394531 5.515625 -0.46875 C 5.796875 -0.550781 6.003906 -0.65625 6.140625 -0.78125 C 6.273438 -0.914062 6.359375 -1.066406 6.390625 -1.234375 C 6.429688 -1.410156 6.453125 -1.585938 6.453125 -1.765625 Z M 6.453125 -1.765625 "/></g></g></g><g fill="#4d433a" fill-opacity="1"><g transform="translate(160.321406, 200.783069)"><g><path d="M 3.25 -3.9375 C 2.914062 -3.9375 2.617188 -3.90625 2.359375 -3.84375 C 2.097656 -3.789062 1.875 -3.695312 1.6875 -3.5625 C 1.507812 -3.4375 1.367188 -3.269531 1.265625 -3.0625 C 1.160156 -2.863281 1.101562 -2.617188 1.09375 -2.328125 L 5.171875 -2.328125 L 5.171875 -2.625 C 5.171875 -2.800781 5.132812 -2.96875 5.0625 -3.125 C 5 -3.289062 4.890625 -3.429688 4.734375 -3.546875 C 4.585938 -3.671875 4.390625 -3.765625 4.140625 -3.828125 C 3.898438 -3.898438 3.601562 -3.9375 3.25 -3.9375 Z M 2.96875 -0.265625 C 3.3125 -0.265625 3.609375 -0.285156 3.859375 -0.328125 C 4.117188 -0.367188 4.335938 -0.421875 4.515625 -0.484375 C 4.703125 -0.546875 4.851562 -0.609375 4.96875 -0.671875 C 5.09375 -0.742188 5.1875 -0.800781 5.25 -0.84375 C 5.269531 -0.84375 5.285156 -0.84375 5.296875 -0.84375 C 5.328125 -0.84375 5.359375 -0.820312 5.390625 -0.78125 C 5.429688 -0.75 5.453125 -0.710938 5.453125 -0.671875 C 5.453125 -0.628906 5.429688 -0.597656 5.390625 -0.578125 C 5.359375 -0.546875 5.289062 -0.492188 5.1875 -0.421875 C 5.082031 -0.347656 4.929688 -0.273438 4.734375 -0.203125 C 4.535156 -0.140625 4.289062 -0.0820312 4 -0.03125 C 3.707031 0.0195312 3.359375 0.046875 2.953125 0.046875 C 2.535156 0.046875 2.179688 -0.00390625 1.890625 -0.109375 C 1.597656 -0.210938 1.359375 -0.359375 1.171875 -0.546875 C 0.992188 -0.734375 0.863281 -0.957031 0.78125 -1.21875 C 0.695312 -1.476562 0.65625 -1.765625 0.65625 -2.078125 C 0.65625 -2.492188 0.722656 -2.84375 0.859375 -3.125 C 0.992188 -3.40625 1.175781 -3.628906 1.40625 -3.796875 C 1.632812 -3.960938 1.90625 -4.078125 2.21875 -4.140625 C 2.539062 -4.210938 2.882812 -4.25 3.25 -4.25 C 4 -4.25 4.554688 -4.101562 4.921875 -3.8125 C 5.296875 -3.53125 5.484375 -3.125 5.484375 -2.59375 C 5.484375 -2.539062 5.476562 -2.484375 5.46875 -2.421875 C 5.46875 -2.359375 5.460938 -2.296875 5.453125 -2.234375 C 5.441406 -2.179688 5.425781 -2.132812 5.40625 -2.09375 C 5.382812 -2.0625 5.367188 -2.046875 5.359375 -2.046875 L 3.765625 -2.046875 L 1.09375 -2.109375 C 1.09375 -1.765625 1.132812 -1.476562 1.21875 -1.25 C 1.300781 -1.019531 1.421875 -0.832031 1.578125 -0.6875 C 1.734375 -0.539062 1.925781 -0.429688 2.15625 -0.359375 C 2.382812 -0.296875 2.65625 -0.265625 2.96875 -0.265625 Z M 2.96875 -0.265625 "/></g></g></g><g fill="#4d433a" fill-opacity="1"><g transform="translate(166.434609, 200.783069)"><g><path d="M 3.234375 -4.0625 C 3.285156 -4.0625 3.320312 -4.046875 3.34375 -4.015625 C 3.375 -3.992188 3.390625 -3.96875 3.390625 -3.9375 C 3.390625 -3.90625 3.375 -3.875 3.34375 -3.84375 C 3.320312 -3.8125 3.285156 -3.796875 3.234375 -3.796875 L 1.4375 -3.796875 L 1.4375 -1.515625 C 1.4375 -1.242188 1.460938 -1.023438 1.515625 -0.859375 C 1.566406 -0.703125 1.640625 -0.578125 1.734375 -0.484375 C 1.828125 -0.398438 1.9375 -0.34375 2.0625 -0.3125 C 2.1875 -0.28125 2.316406 -0.265625 2.453125 -0.265625 C 2.628906 -0.265625 2.800781 -0.296875 2.96875 -0.359375 C 3.132812 -0.421875 3.320312 -0.507812 3.53125 -0.625 C 3.582031 -0.644531 3.625 -0.65625 3.65625 -0.65625 C 3.707031 -0.65625 3.742188 -0.640625 3.765625 -0.609375 C 3.796875 -0.585938 3.8125 -0.554688 3.8125 -0.515625 C 3.8125 -0.441406 3.769531 -0.382812 3.6875 -0.34375 C 3.539062 -0.257812 3.40625 -0.191406 3.28125 -0.140625 C 3.164062 -0.0859375 3.054688 -0.046875 2.953125 -0.015625 C 2.859375 0.00390625 2.765625 0.0195312 2.671875 0.03125 C 2.578125 0.0390625 2.476562 0.046875 2.375 0.046875 C 2.1875 0.046875 2.003906 0.0195312 1.828125 -0.03125 C 1.660156 -0.0820312 1.515625 -0.164062 1.390625 -0.28125 C 1.273438 -0.40625 1.179688 -0.566406 1.109375 -0.765625 C 1.035156 -0.972656 1 -1.222656 1 -1.515625 L 1 -3.796875 L 0.53125 -3.796875 C 0.476562 -3.796875 0.4375 -3.8125 0.40625 -3.84375 C 0.382812 -3.875 0.375 -3.90625 0.375 -3.9375 C 0.375 -3.96875 0.382812 -3.992188 0.40625 -4.015625 C 0.4375 -4.046875 0.476562 -4.0625 0.53125 -4.0625 L 1 -4.0625 L 1 -5.40625 C 1 -5.519531 1.019531 -5.59375 1.0625 -5.625 C 1.113281 -5.65625 1.164062 -5.671875 1.21875 -5.671875 C 1.28125 -5.671875 1.332031 -5.65625 1.375 -5.625 C 1.414062 -5.59375 1.4375 -5.519531 1.4375 -5.40625 L 1.4375 -4.0625 Z M 3.234375 -4.0625 "/></g></g></g><g fill="#4d433a" fill-opacity="1"><g transform="translate(170.297287, 200.783069)"><g><path d="M 3.234375 -4.0625 C 3.285156 -4.0625 3.320312 -4.046875 3.34375 -4.015625 C 3.375 -3.992188 3.390625 -3.96875 3.390625 -3.9375 C 3.390625 -3.90625 3.375 -3.875 3.34375 -3.84375 C 3.320312 -3.8125 3.285156 -3.796875 3.234375 -3.796875 L 1.4375 -3.796875 L 1.4375 -1.515625 C 1.4375 -1.242188 1.460938 -1.023438 1.515625 -0.859375 C 1.566406 -0.703125 1.640625 -0.578125 1.734375 -0.484375 C 1.828125 -0.398438 1.9375 -0.34375 2.0625 -0.3125 C 2.1875 -0.28125 2.316406 -0.265625 2.453125 -0.265625 C 2.628906 -0.265625 2.800781 -0.296875 2.96875 -0.359375 C 3.132812 -0.421875 3.320312 -0.507812 3.53125 -0.625 C 3.582031 -0.644531 3.625 -0.65625 3.65625 -0.65625 C 3.707031 -0.65625 3.742188 -0.640625 3.765625 -0.609375 C 3.796875 -0.585938 3.8125 -0.554688 3.8125 -0.515625 C 3.8125 -0.441406 3.769531 -0.382812 3.6875 -0.34375 C 3.539062 -0.257812 3.40625 -0.191406 3.28125 -0.140625 C 3.164062 -0.0859375 3.054688 -0.046875 2.953125 -0.015625 C 2.859375 0.00390625 2.765625 0.0195312 2.671875 0.03125 C 2.578125 0.0390625 2.476562 0.046875 2.375 0.046875 C 2.1875 0.046875 2.003906 0.0195312 1.828125 -0.03125 C 1.660156 -0.0820312 1.515625 -0.164062 1.390625 -0.28125 C 1.273438 -0.40625 1.179688 -0.566406 1.109375 -0.765625 C 1.035156 -0.972656 1 -1.222656 1 -1.515625 L 1 -3.796875 L 0.53125 -3.796875 C 0.476562 -3.796875 0.4375 -3.8125 0.40625 -3.84375 C 0.382812 -3.875 0.375 -3.90625 0.375 -3.9375 C 0.375 -3.96875 0.382812 -3.992188 0.40625 -4.015625 C 0.4375 -4.046875 0.476562 -4.0625 0.53125 -4.0625 L 1 -4.0625 L 1 -5.40625 C 1 -5.519531 1.019531 -5.59375 1.0625 -5.625 C 1.113281 -5.65625 1.164062 -5.671875 1.21875 -5.671875 C 1.28125 -5.671875 1.332031 -5.65625 1.375 -5.625 C 1.414062 -5.59375 1.4375 -5.519531 1.4375 -5.40625 L 1.4375 -4.0625 Z M 3.234375 -4.0625 "/></g></g></g><g fill="#4d433a" fill-opacity="1"><g transform="translate(174.159966, 200.783069)"><g><path d="M 3.25 -3.9375 C 2.914062 -3.9375 2.617188 -3.90625 2.359375 -3.84375 C 2.097656 -3.789062 1.875 -3.695312 1.6875 -3.5625 C 1.507812 -3.4375 1.367188 -3.269531 1.265625 -3.0625 C 1.160156 -2.863281 1.101562 -2.617188 1.09375 -2.328125 L 5.171875 -2.328125 L 5.171875 -2.625 C 5.171875 -2.800781 5.132812 -2.96875 5.0625 -3.125 C 5 -3.289062 4.890625 -3.429688 4.734375 -3.546875 C 4.585938 -3.671875 4.390625 -3.765625 4.140625 -3.828125 C 3.898438 -3.898438 3.601562 -3.9375 3.25 -3.9375 Z M 2.96875 -0.265625 C 3.3125 -0.265625 3.609375 -0.285156 3.859375 -0.328125 C 4.117188 -0.367188 4.335938 -0.421875 4.515625 -0.484375 C 4.703125 -0.546875 4.851562 -0.609375 4.96875 -0.671875 C 5.09375 -0.742188 5.1875 -0.800781 5.25 -0.84375 C 5.269531 -0.84375 5.285156 -0.84375 5.296875 -0.84375 C 5.328125 -0.84375 5.359375 -0.820312 5.390625 -0.78125 C 5.429688 -0.75 5.453125 -0.710938 5.453125 -0.671875 C 5.453125 -0.628906 5.429688 -0.597656 5.390625 -0.578125 C 5.359375 -0.546875 5.289062 -0.492188 5.1875 -0.421875 C 5.082031 -0.347656 4.929688 -0.273438 4.734375 -0.203125 C 4.535156 -0.140625 4.289062 -0.0820312 4 -0.03125 C 3.707031 0.0195312 3.359375 0.046875 2.953125 0.046875 C 2.535156 0.046875 2.179688 -0.00390625 1.890625 -0.109375 C 1.597656 -0.210938 1.359375 -0.359375 1.171875 -0.546875 C 0.992188 -0.734375 0.863281 -0.957031 0.78125 -1.21875 C 0.695312 -1.476562 0.65625 -1.765625 0.65625 -2.078125 C 0.65625 -2.492188 0.722656 -2.84375 0.859375 -3.125 C 0.992188 -3.40625 1.175781 -3.628906 1.40625 -3.796875 C 1.632812 -3.960938 1.90625 -4.078125 2.21875 -4.140625 C 2.539062 -4.210938 2.882812 -4.25 3.25 -4.25 C 4 -4.25 4.554688 -4.101562 4.921875 -3.8125 C 5.296875 -3.53125 5.484375 -3.125 5.484375 -2.59375 C 5.484375 -2.539062 5.476562 -2.484375 5.46875 -2.421875 C 5.46875 -2.359375 5.460938 -2.296875 5.453125 -2.234375 C 5.441406 -2.179688 5.425781 -2.132812 5.40625 -2.09375 C 5.382812 -2.0625 5.367188 -2.046875 5.359375 -2.046875 L 3.765625 -2.046875 L 1.09375 -2.109375 C 1.09375 -1.765625 1.132812 -1.476562 1.21875 -1.25 C 1.300781 -1.019531 1.421875 -0.832031 1.578125 -0.6875 C 1.734375 -0.539062 1.925781 -0.429688 2.15625 -0.359375 C 2.382812 -0.296875 2.65625 -0.265625 2.96875 -0.265625 Z M 2.96875 -0.265625 "/></g></g></g><g fill="#4d433a" fill-opacity="1"><g transform="translate(180.273168, 200.783069)"><g><path d="M 4.046875 -4.125 C 4.085938 -4.113281 4.113281 -4.09375 4.125 -4.0625 C 4.144531 -4.03125 4.15625 -3.992188 4.15625 -3.953125 C 4.15625 -3.910156 4.140625 -3.867188 4.109375 -3.828125 C 4.078125 -3.785156 4.03125 -3.765625 3.96875 -3.765625 C 3.957031 -3.765625 3.945312 -3.765625 3.9375 -3.765625 C 3.9375 -3.773438 3.925781 -3.78125 3.90625 -3.78125 C 3.769531 -3.820312 3.632812 -3.851562 3.5 -3.875 C 3.375 -3.894531 3.238281 -3.90625 3.09375 -3.90625 C 2.875 -3.90625 2.664062 -3.882812 2.46875 -3.84375 C 2.28125 -3.800781 2.109375 -3.738281 1.953125 -3.65625 C 1.796875 -3.570312 1.660156 -3.460938 1.546875 -3.328125 C 1.429688 -3.191406 1.34375 -3.035156 1.28125 -2.859375 L 1.28125 -0.375 C 1.28125 -0.28125 1.269531 -0.191406 1.25 -0.109375 C 1.226562 -0.0351562 1.171875 0 1.078125 0 C 1.023438 0 0.984375 -0.0078125 0.953125 -0.03125 C 0.921875 -0.0507812 0.894531 -0.078125 0.875 -0.109375 C 0.863281 -0.148438 0.859375 -0.191406 0.859375 -0.234375 C 0.859375 -0.285156 0.859375 -0.332031 0.859375 -0.375 L 0.859375 -3.84375 C 0.859375 -3.925781 0.867188 -3.992188 0.890625 -4.046875 C 0.921875 -4.109375 0.988281 -4.140625 1.09375 -4.140625 C 1.175781 -4.140625 1.226562 -4.109375 1.25 -4.046875 C 1.269531 -3.992188 1.28125 -3.925781 1.28125 -3.84375 L 1.28125 -3.21875 C 1.34375 -3.4375 1.441406 -3.613281 1.578125 -3.75 C 1.722656 -3.882812 1.882812 -3.988281 2.0625 -4.0625 C 2.238281 -4.132812 2.414062 -4.179688 2.59375 -4.203125 C 2.78125 -4.234375 2.945312 -4.25 3.09375 -4.25 C 3.226562 -4.25 3.34375 -4.242188 3.4375 -4.234375 C 3.539062 -4.222656 3.628906 -4.210938 3.703125 -4.203125 C 3.773438 -4.191406 3.835938 -4.175781 3.890625 -4.15625 C 3.941406 -4.144531 3.992188 -4.132812 4.046875 -4.125 Z M 4.046875 -4.125 "/></g></g></g><g fill="#4d433a" fill-opacity="1"><g transform="translate(184.649795, 200.783069)"><g/></g></g><g fill="#4d433a" fill-opacity="1"><g transform="translate(187.138355, 200.783069)"><g><path d="M 1.328125 -0.375 C 1.328125 -0.269531 1.3125 -0.179688 1.28125 -0.109375 C 1.25 -0.0351562 1.191406 0 1.109375 0 C 1.003906 0 0.9375 -0.0351562 0.90625 -0.109375 C 0.882812 -0.179688 0.875 -0.269531 0.875 -0.375 L 0.875 -5.828125 C 0.875 -5.878906 0.875 -5.914062 0.875 -5.9375 C 0.875 -5.96875 0.878906 -5.988281 0.890625 -6 C 0.898438 -6.007812 0.914062 -6.015625 0.9375 -6.015625 C 0.96875 -6.023438 1.015625 -6.03125 1.078125 -6.03125 L 6.359375 -6.03125 C 6.410156 -6.03125 6.457031 -6.023438 6.5 -6.015625 C 6.539062 -6.015625 6.570312 -6.007812 6.59375 -6 C 6.625 -5.988281 6.648438 -5.96875 6.671875 -5.9375 C 6.691406 -5.914062 6.703125 -5.882812 6.703125 -5.84375 C 6.703125 -5.757812 6.671875 -5.707031 6.609375 -5.6875 C 6.546875 -5.675781 6.460938 -5.671875 6.359375 -5.671875 L 1.328125 -5.671875 L 1.328125 -3.21875 L 5.59375 -3.21875 C 5.695312 -3.21875 5.78125 -3.207031 5.84375 -3.1875 C 5.90625 -3.175781 5.9375 -3.128906 5.9375 -3.046875 C 5.9375 -2.992188 5.925781 -2.957031 5.90625 -2.9375 C 5.894531 -2.914062 5.867188 -2.894531 5.828125 -2.875 C 5.796875 -2.863281 5.757812 -2.859375 5.71875 -2.859375 C 5.675781 -2.859375 5.632812 -2.859375 5.59375 -2.859375 L 1.328125 -2.859375 Z M 1.328125 -0.375 "/></g></g></g><g fill="#4d433a" fill-opacity="1"><g transform="translate(193.841245, 200.783069)"><g><path d="M 3.359375 0.046875 C 2.859375 0.046875 2.4375 0 2.09375 -0.09375 C 1.75 -0.195312 1.472656 -0.335938 1.265625 -0.515625 C 1.054688 -0.703125 0.90625 -0.925781 0.8125 -1.1875 C 0.71875 -1.445312 0.671875 -1.742188 0.671875 -2.078125 C 0.671875 -2.460938 0.722656 -2.789062 0.828125 -3.0625 C 0.929688 -3.332031 1.09375 -3.554688 1.3125 -3.734375 C 1.539062 -3.910156 1.820312 -4.039062 2.15625 -4.125 C 2.488281 -4.207031 2.890625 -4.25 3.359375 -4.25 C 3.816406 -4.25 4.210938 -4.207031 4.546875 -4.125 C 4.890625 -4.039062 5.171875 -3.910156 5.390625 -3.734375 C 5.609375 -3.554688 5.769531 -3.332031 5.875 -3.0625 C 5.988281 -2.789062 6.046875 -2.460938 6.046875 -2.078125 C 6.046875 -1.742188 6 -1.445312 5.90625 -1.1875 C 5.8125 -0.925781 5.65625 -0.703125 5.4375 -0.515625 C 5.226562 -0.335938 4.953125 -0.195312 4.609375 -0.09375 C 4.265625 0 3.847656 0.046875 3.359375 0.046875 Z M 3.359375 -0.265625 C 3.679688 -0.265625 3.960938 -0.285156 4.203125 -0.328125 C 4.441406 -0.378906 4.644531 -0.445312 4.8125 -0.53125 C 4.976562 -0.625 5.113281 -0.726562 5.21875 -0.84375 C 5.320312 -0.957031 5.398438 -1.082031 5.453125 -1.21875 C 5.515625 -1.351562 5.554688 -1.492188 5.578125 -1.640625 C 5.597656 -1.785156 5.609375 -1.929688 5.609375 -2.078125 C 5.609375 -2.410156 5.5625 -2.691406 5.46875 -2.921875 C 5.382812 -3.160156 5.25 -3.351562 5.0625 -3.5 C 4.882812 -3.65625 4.648438 -3.765625 4.359375 -3.828125 C 4.078125 -3.898438 3.742188 -3.9375 3.359375 -3.9375 C 2.960938 -3.9375 2.617188 -3.898438 2.328125 -3.828125 C 2.046875 -3.765625 1.8125 -3.65625 1.625 -3.5 C 1.445312 -3.351562 1.3125 -3.160156 1.21875 -2.921875 C 1.132812 -2.691406 1.09375 -2.410156 1.09375 -2.078125 C 1.09375 -1.929688 1.101562 -1.785156 1.125 -1.640625 C 1.144531 -1.492188 1.1875 -1.351562 1.25 -1.21875 C 1.3125 -1.082031 1.390625 -0.957031 1.484375 -0.84375 C 1.585938 -0.726562 1.722656 -0.625 1.890625 -0.53125 C 2.054688 -0.445312 2.257812 -0.378906 2.5 -0.328125 C 2.738281 -0.285156 3.023438 -0.265625 3.359375 -0.265625 Z M 3.359375 -0.265625 "/></g></g></g><g fill="#4d433a" fill-opacity="1"><g transform="translate(200.549538, 200.783069)"><g><path d="M 3.359375 0.046875 C 2.859375 0.046875 2.4375 0 2.09375 -0.09375 C 1.75 -0.195312 1.472656 -0.335938 1.265625 -0.515625 C 1.054688 -0.703125 0.90625 -0.925781 0.8125 -1.1875 C 0.71875 -1.445312 0.671875 -1.742188 0.671875 -2.078125 C 0.671875 -2.460938 0.722656 -2.789062 0.828125 -3.0625 C 0.929688 -3.332031 1.09375 -3.554688 1.3125 -3.734375 C 1.539062 -3.910156 1.820312 -4.039062 2.15625 -4.125 C 2.488281 -4.207031 2.890625 -4.25 3.359375 -4.25 C 3.816406 -4.25 4.210938 -4.207031 4.546875 -4.125 C 4.890625 -4.039062 5.171875 -3.910156 5.390625 -3.734375 C 5.609375 -3.554688 5.769531 -3.332031 5.875 -3.0625 C 5.988281 -2.789062 6.046875 -2.460938 6.046875 -2.078125 C 6.046875 -1.742188 6 -1.445312 5.90625 -1.1875 C 5.8125 -0.925781 5.65625 -0.703125 5.4375 -0.515625 C 5.226562 -0.335938 4.953125 -0.195312 4.609375 -0.09375 C 4.265625 0 3.847656 0.046875 3.359375 0.046875 Z M 3.359375 -0.265625 C 3.679688 -0.265625 3.960938 -0.285156 4.203125 -0.328125 C 4.441406 -0.378906 4.644531 -0.445312 4.8125 -0.53125 C 4.976562 -0.625 5.113281 -0.726562 5.21875 -0.84375 C 5.320312 -0.957031 5.398438 -1.082031 5.453125 -1.21875 C 5.515625 -1.351562 5.554688 -1.492188 5.578125 -1.640625 C 5.597656 -1.785156 5.609375 -1.929688 5.609375 -2.078125 C 5.609375 -2.410156 5.5625 -2.691406 5.46875 -2.921875 C 5.382812 -3.160156 5.25 -3.351562 5.0625 -3.5 C 4.882812 -3.65625 4.648438 -3.765625 4.359375 -3.828125 C 4.078125 -3.898438 3.742188 -3.9375 3.359375 -3.9375 C 2.960938 -3.9375 2.617188 -3.898438 2.328125 -3.828125 C 2.046875 -3.765625 1.8125 -3.65625 1.625 -3.5 C 1.445312 -3.351562 1.3125 -3.160156 1.21875 -2.921875 C 1.132812 -2.691406 1.09375 -2.410156 1.09375 -2.078125 C 1.09375 -1.929688 1.101562 -1.785156 1.125 -1.640625 C 1.144531 -1.492188 1.1875 -1.351562 1.25 -1.21875 C 1.3125 -1.082031 1.390625 -0.957031 1.484375 -0.84375 C 1.585938 -0.726562 1.722656 -0.625 1.890625 -0.53125 C 2.054688 -0.445312 2.257812 -0.378906 2.5 -0.328125 C 2.738281 -0.285156 3.023438 -0.265625 3.359375 -0.265625 Z M 3.359375 -0.265625 "/></g></g></g><g fill="#4d433a" fill-opacity="1"><g transform="translate(207.257831, 200.783069)"><g><path d="M 3.0625 0.046875 C 2.738281 0.046875 2.429688 0.015625 2.140625 -0.046875 C 1.847656 -0.109375 1.59375 -0.222656 1.375 -0.390625 C 1.15625 -0.554688 0.984375 -0.769531 0.859375 -1.03125 C 0.734375 -1.300781 0.671875 -1.644531 0.671875 -2.0625 C 0.671875 -2.457031 0.722656 -2.796875 0.828125 -3.078125 C 0.929688 -3.359375 1.082031 -3.582031 1.28125 -3.75 C 1.488281 -3.925781 1.738281 -4.050781 2.03125 -4.125 C 2.332031 -4.207031 2.675781 -4.25 3.0625 -4.25 C 3.445312 -4.25 3.773438 -4.222656 4.046875 -4.171875 C 4.316406 -4.128906 4.546875 -4.070312 4.734375 -4 C 4.929688 -3.9375 5.085938 -3.863281 5.203125 -3.78125 C 5.328125 -3.707031 5.425781 -3.632812 5.5 -3.5625 L 5.5 -5.640625 C 5.5 -5.691406 5.5 -5.738281 5.5 -5.78125 C 5.5 -5.832031 5.503906 -5.875 5.515625 -5.90625 C 5.535156 -5.945312 5.554688 -5.976562 5.578125 -6 C 5.609375 -6.019531 5.648438 -6.03125 5.703125 -6.03125 C 5.753906 -6.03125 5.796875 -6.019531 5.828125 -6 C 5.859375 -5.976562 5.878906 -5.953125 5.890625 -5.921875 C 5.910156 -5.890625 5.921875 -5.847656 5.921875 -5.796875 C 5.921875 -5.753906 5.921875 -5.707031 5.921875 -5.65625 L 5.921875 -0.296875 C 5.921875 -0.179688 5.898438 -0.101562 5.859375 -0.0625 C 5.816406 -0.0195312 5.769531 0 5.71875 0 C 5.65625 0 5.601562 -0.015625 5.5625 -0.046875 C 5.519531 -0.0859375 5.5 -0.164062 5.5 -0.28125 L 5.5 -1.03125 C 5.457031 -0.875 5.382812 -0.738281 5.28125 -0.625 C 5.1875 -0.507812 5.066406 -0.410156 4.921875 -0.328125 C 4.785156 -0.253906 4.632812 -0.191406 4.46875 -0.140625 C 4.300781 -0.0859375 4.132812 -0.046875 3.96875 -0.015625 C 3.800781 0.00390625 3.640625 0.0195312 3.484375 0.03125 C 3.328125 0.0390625 3.1875 0.046875 3.0625 0.046875 Z M 3.0625 -0.265625 C 3.28125 -0.265625 3.515625 -0.28125 3.765625 -0.3125 C 4.023438 -0.34375 4.269531 -0.394531 4.5 -0.46875 C 4.738281 -0.550781 4.945312 -0.660156 5.125 -0.796875 C 5.300781 -0.941406 5.425781 -1.128906 5.5 -1.359375 L 5.5 -3.3125 C 5.414062 -3.375 5.304688 -3.441406 5.171875 -3.515625 C 5.046875 -3.585938 4.882812 -3.65625 4.6875 -3.71875 C 4.5 -3.78125 4.269531 -3.832031 4 -3.875 C 3.738281 -3.914062 3.425781 -3.9375 3.0625 -3.9375 C 2.71875 -3.9375 2.421875 -3.898438 2.171875 -3.828125 C 1.921875 -3.753906 1.710938 -3.640625 1.546875 -3.484375 C 1.390625 -3.328125 1.273438 -3.128906 1.203125 -2.890625 C 1.128906 -2.660156 1.09375 -2.382812 1.09375 -2.0625 C 1.09375 -1.71875 1.144531 -1.429688 1.25 -1.203125 C 1.351562 -0.972656 1.492188 -0.785156 1.671875 -0.640625 C 1.847656 -0.503906 2.054688 -0.40625 2.296875 -0.34375 C 2.535156 -0.289062 2.789062 -0.265625 3.0625 -0.265625 Z M 3.0625 -0.265625 "/></g></g></g><g fill="#4d433a" fill-opacity="1"><g transform="translate(214.04728, 200.783069)"><g><path d="M 0.453125 0.46875 C 0.585938 0.46875 0.675781 0.429688 0.71875 0.359375 C 0.769531 0.296875 0.796875 0.210938 0.796875 0.109375 C 0.734375 0.0976562 0.671875 0.0625 0.609375 0 C 0.554688 -0.0625 0.53125 -0.144531 0.53125 -0.25 C 0.53125 -0.351562 0.566406 -0.429688 0.640625 -0.484375 C 0.710938 -0.535156 0.804688 -0.5625 0.921875 -0.5625 C 0.960938 -0.5625 1.003906 -0.550781 1.046875 -0.53125 C 1.085938 -0.519531 1.125 -0.5 1.15625 -0.46875 C 1.195312 -0.4375 1.226562 -0.394531 1.25 -0.34375 C 1.269531 -0.289062 1.28125 -0.234375 1.28125 -0.171875 C 1.28125 -0.078125 1.257812 0.015625 1.21875 0.109375 C 1.1875 0.210938 1.132812 0.304688 1.0625 0.390625 C 1 0.472656 0.914062 0.539062 0.8125 0.59375 C 0.71875 0.644531 0.597656 0.671875 0.453125 0.671875 Z M 0.453125 0.46875 "/></g></g></g><g fill="#4d433a" fill-opacity="1"><g transform="translate(215.794688, 200.783069)"><g/></g></g><g fill="#4d433a" fill-opacity="1"><g transform="translate(218.283248, 200.783069)"><g><path d="M 6.90625 -1.765625 C 6.90625 -1.398438 6.832031 -1.101562 6.6875 -0.875 C 6.550781 -0.644531 6.359375 -0.460938 6.109375 -0.328125 C 5.867188 -0.203125 5.582031 -0.113281 5.25 -0.0625 C 4.914062 -0.0195312 4.554688 0 4.171875 0 L 1.046875 0 C 0.984375 0 0.9375 -0.015625 0.90625 -0.046875 C 0.875 -0.0859375 0.859375 -0.132812 0.859375 -0.1875 L 0.859375 -5.828125 C 0.859375 -5.890625 0.878906 -5.9375 0.921875 -5.96875 C 0.960938 -6.007812 1.015625 -6.03125 1.078125 -6.03125 L 3.546875 -6.03125 C 3.804688 -6.03125 4.0625 -6.023438 4.3125 -6.015625 C 4.570312 -6.015625 4.8125 -6 5.03125 -5.96875 C 5.257812 -5.9375 5.46875 -5.890625 5.65625 -5.828125 C 5.84375 -5.765625 6.003906 -5.675781 6.140625 -5.5625 C 6.285156 -5.445312 6.394531 -5.304688 6.46875 -5.140625 C 6.550781 -4.972656 6.59375 -4.765625 6.59375 -4.515625 C 6.59375 -4.304688 6.5625 -4.128906 6.5 -3.984375 C 6.445312 -3.847656 6.375 -3.726562 6.28125 -3.625 C 6.195312 -3.53125 6.097656 -3.453125 5.984375 -3.390625 C 5.878906 -3.335938 5.773438 -3.296875 5.671875 -3.265625 C 5.578125 -3.242188 5.488281 -3.226562 5.40625 -3.21875 C 5.320312 -3.21875 5.257812 -3.21875 5.21875 -3.21875 L 5.1875 -3.21875 C 5.40625 -3.195312 5.613281 -3.15625 5.8125 -3.09375 C 6.019531 -3.039062 6.203125 -2.957031 6.359375 -2.84375 C 6.523438 -2.738281 6.65625 -2.597656 6.75 -2.421875 C 6.851562 -2.242188 6.90625 -2.023438 6.90625 -1.765625 Z M 6.140625 -4.515625 C 6.140625 -4.703125 6.109375 -4.863281 6.046875 -5 C 5.984375 -5.144531 5.863281 -5.265625 5.6875 -5.359375 C 5.519531 -5.460938 5.28125 -5.539062 4.96875 -5.59375 C 4.65625 -5.644531 4.25 -5.671875 3.75 -5.671875 L 1.328125 -5.671875 L 1.328125 -3.34375 L 3.890625 -3.34375 C 4.273438 -3.34375 4.609375 -3.359375 4.890625 -3.390625 C 5.171875 -3.421875 5.40625 -3.476562 5.59375 -3.5625 C 5.78125 -3.65625 5.914062 -3.773438 6 -3.921875 C 6.09375 -4.078125 6.140625 -4.273438 6.140625 -4.515625 Z M 6.453125 -1.765625 C 6.453125 -2.015625 6.390625 -2.222656 6.265625 -2.390625 C 6.148438 -2.554688 5.976562 -2.6875 5.75 -2.78125 C 5.53125 -2.875 5.257812 -2.941406 4.9375 -2.984375 C 4.625 -3.023438 4.273438 -3.046875 3.890625 -3.046875 L 1.328125 -3.046875 L 1.328125 -0.359375 L 4.375 -0.359375 C 4.851562 -0.359375 5.234375 -0.394531 5.515625 -0.46875 C 5.796875 -0.550781 6.003906 -0.65625 6.140625 -0.78125 C 6.273438 -0.914062 6.359375 -1.066406 6.390625 -1.234375 C 6.429688 -1.410156 6.453125 -1.585938 6.453125 -1.765625 Z M 6.453125 -1.765625 "/></g></g></g><g fill="#4d433a" fill-opacity="1"><g transform="translate(225.900407, 200.783069)"><g><path d="M 3.25 -3.9375 C 2.914062 -3.9375 2.617188 -3.90625 2.359375 -3.84375 C 2.097656 -3.789062 1.875 -3.695312 1.6875 -3.5625 C 1.507812 -3.4375 1.367188 -3.269531 1.265625 -3.0625 C 1.160156 -2.863281 1.101562 -2.617188 1.09375 -2.328125 L 5.171875 -2.328125 L 5.171875 -2.625 C 5.171875 -2.800781 5.132812 -2.96875 5.0625 -3.125 C 5 -3.289062 4.890625 -3.429688 4.734375 -3.546875 C 4.585938 -3.671875 4.390625 -3.765625 4.140625 -3.828125 C 3.898438 -3.898438 3.601562 -3.9375 3.25 -3.9375 Z M 2.96875 -0.265625 C 3.3125 -0.265625 3.609375 -0.285156 3.859375 -0.328125 C 4.117188 -0.367188 4.335938 -0.421875 4.515625 -0.484375 C 4.703125 -0.546875 4.851562 -0.609375 4.96875 -0.671875 C 5.09375 -0.742188 5.1875 -0.800781 5.25 -0.84375 C 5.269531 -0.84375 5.285156 -0.84375 5.296875 -0.84375 C 5.328125 -0.84375 5.359375 -0.820312 5.390625 -0.78125 C 5.429688 -0.75 5.453125 -0.710938 5.453125 -0.671875 C 5.453125 -0.628906 5.429688 -0.597656 5.390625 -0.578125 C 5.359375 -0.546875 5.289062 -0.492188 5.1875 -0.421875 C 5.082031 -0.347656 4.929688 -0.273438 4.734375 -0.203125 C 4.535156 -0.140625 4.289062 -0.0820312 4 -0.03125 C 3.707031 0.0195312 3.359375 0.046875 2.953125 0.046875 C 2.535156 0.046875 2.179688 -0.00390625 1.890625 -0.109375 C 1.597656 -0.210938 1.359375 -0.359375 1.171875 -0.546875 C 0.992188 -0.734375 0.863281 -0.957031 0.78125 -1.21875 C 0.695312 -1.476562 0.65625 -1.765625 0.65625 -2.078125 C 0.65625 -2.492188 0.722656 -2.84375 0.859375 -3.125 C 0.992188 -3.40625 1.175781 -3.628906 1.40625 -3.796875 C 1.632812 -3.960938 1.90625 -4.078125 2.21875 -4.140625 C 2.539062 -4.210938 2.882812 -4.25 3.25 -4.25 C 4 -4.25 4.554688 -4.101562 4.921875 -3.8125 C 5.296875 -3.53125 5.484375 -3.125 5.484375 -2.59375 C 5.484375 -2.539062 5.476562 -2.484375 5.46875 -2.421875 C 5.46875 -2.359375 5.460938 -2.296875 5.453125 -2.234375 C 5.441406 -2.179688 5.425781 -2.132812 5.40625 -2.09375 C 5.382812 -2.0625 5.367188 -2.046875 5.359375 -2.046875 L 3.765625 -2.046875 L 1.09375 -2.109375 C 1.09375 -1.765625 1.132812 -1.476562 1.21875 -1.25 C 1.300781 -1.019531 1.421875 -0.832031 1.578125 -0.6875 C 1.734375 -0.539062 1.925781 -0.429688 2.15625 -0.359375 C 2.382812 -0.296875 2.65625 -0.265625 2.96875 -0.265625 Z M 2.96875 -0.265625 "/></g></g></g><g fill="#4d433a" fill-opacity="1"><g transform="translate(232.01361, 200.783069)"><g><path d="M 3.234375 -4.0625 C 3.285156 -4.0625 3.320312 -4.046875 3.34375 -4.015625 C 3.375 -3.992188 3.390625 -3.96875 3.390625 -3.9375 C 3.390625 -3.90625 3.375 -3.875 3.34375 -3.84375 C 3.320312 -3.8125 3.285156 -3.796875 3.234375 -3.796875 L 1.4375 -3.796875 L 1.4375 -1.515625 C 1.4375 -1.242188 1.460938 -1.023438 1.515625 -0.859375 C 1.566406 -0.703125 1.640625 -0.578125 1.734375 -0.484375 C 1.828125 -0.398438 1.9375 -0.34375 2.0625 -0.3125 C 2.1875 -0.28125 2.316406 -0.265625 2.453125 -0.265625 C 2.628906 -0.265625 2.800781 -0.296875 2.96875 -0.359375 C 3.132812 -0.421875 3.320312 -0.507812 3.53125 -0.625 C 3.582031 -0.644531 3.625 -0.65625 3.65625 -0.65625 C 3.707031 -0.65625 3.742188 -0.640625 3.765625 -0.609375 C 3.796875 -0.585938 3.8125 -0.554688 3.8125 -0.515625 C 3.8125 -0.441406 3.769531 -0.382812 3.6875 -0.34375 C 3.539062 -0.257812 3.40625 -0.191406 3.28125 -0.140625 C 3.164062 -0.0859375 3.054688 -0.046875 2.953125 -0.015625 C 2.859375 0.00390625 2.765625 0.0195312 2.671875 0.03125 C 2.578125 0.0390625 2.476562 0.046875 2.375 0.046875 C 2.1875 0.046875 2.003906 0.0195312 1.828125 -0.03125 C 1.660156 -0.0820312 1.515625 -0.164062 1.390625 -0.28125 C 1.273438 -0.40625 1.179688 -0.566406 1.109375 -0.765625 C 1.035156 -0.972656 1 -1.222656 1 -1.515625 L 1 -3.796875 L 0.53125 -3.796875 C 0.476562 -3.796875 0.4375 -3.8125 0.40625 -3.84375 C 0.382812 -3.875 0.375 -3.90625 0.375 -3.9375 C 0.375 -3.96875 0.382812 -3.992188 0.40625 -4.015625 C 0.4375 -4.046875 0.476562 -4.0625 0.53125 -4.0625 L 1 -4.0625 L 1 -5.40625 C 1 -5.519531 1.019531 -5.59375 1.0625 -5.625 C 1.113281 -5.65625 1.164062 -5.671875 1.21875 -5.671875 C 1.28125 -5.671875 1.332031 -5.65625 1.375 -5.625 C 1.414062 -5.59375 1.4375 -5.519531 1.4375 -5.40625 L 1.4375 -4.0625 Z M 3.234375 -4.0625 "/></g></g></g><g fill="#4d433a" fill-opacity="1"><g transform="translate(235.876288, 200.783069)"><g><path d="M 3.234375 -4.0625 C 3.285156 -4.0625 3.320312 -4.046875 3.34375 -4.015625 C 3.375 -3.992188 3.390625 -3.96875 3.390625 -3.9375 C 3.390625 -3.90625 3.375 -3.875 3.34375 -3.84375 C 3.320312 -3.8125 3.285156 -3.796875 3.234375 -3.796875 L 1.4375 -3.796875 L 1.4375 -1.515625 C 1.4375 -1.242188 1.460938 -1.023438 1.515625 -0.859375 C 1.566406 -0.703125 1.640625 -0.578125 1.734375 -0.484375 C 1.828125 -0.398438 1.9375 -0.34375 2.0625 -0.3125 C 2.1875 -0.28125 2.316406 -0.265625 2.453125 -0.265625 C 2.628906 -0.265625 2.800781 -0.296875 2.96875 -0.359375 C 3.132812 -0.421875 3.320312 -0.507812 3.53125 -0.625 C 3.582031 -0.644531 3.625 -0.65625 3.65625 -0.65625 C 3.707031 -0.65625 3.742188 -0.640625 3.765625 -0.609375 C 3.796875 -0.585938 3.8125 -0.554688 3.8125 -0.515625 C 3.8125 -0.441406 3.769531 -0.382812 3.6875 -0.34375 C 3.539062 -0.257812 3.40625 -0.191406 3.28125 -0.140625 C 3.164062 -0.0859375 3.054688 -0.046875 2.953125 -0.015625 C 2.859375 0.00390625 2.765625 0.0195312 2.671875 0.03125 C 2.578125 0.0390625 2.476562 0.046875 2.375 0.046875 C 2.1875 0.046875 2.003906 0.0195312 1.828125 -0.03125 C 1.660156 -0.0820312 1.515625 -0.164062 1.390625 -0.28125 C 1.273438 -0.40625 1.179688 -0.566406 1.109375 -0.765625 C 1.035156 -0.972656 1 -1.222656 1 -1.515625 L 1 -3.796875 L 0.53125 -3.796875 C 0.476562 -3.796875 0.4375 -3.8125 0.40625 -3.84375 C 0.382812 -3.875 0.375 -3.90625 0.375 -3.9375 C 0.375 -3.96875 0.382812 -3.992188 0.40625 -4.015625 C 0.4375 -4.046875 0.476562 -4.0625 0.53125 -4.0625 L 1 -4.0625 L 1 -5.40625 C 1 -5.519531 1.019531 -5.59375 1.0625 -5.625 C 1.113281 -5.65625 1.164062 -5.671875 1.21875 -5.671875 C 1.28125 -5.671875 1.332031 -5.65625 1.375 -5.625 C 1.414062 -5.59375 1.4375 -5.519531 1.4375 -5.40625 L 1.4375 -4.0625 Z M 3.234375 -4.0625 "/></g></g></g><g fill="#4d433a" fill-opacity="1"><g transform="translate(239.738967, 200.783069)"><g><path d="M 3.25 -3.9375 C 2.914062 -3.9375 2.617188 -3.90625 2.359375 -3.84375 C 2.097656 -3.789062 1.875 -3.695312 1.6875 -3.5625 C 1.507812 -3.4375 1.367188 -3.269531 1.265625 -3.0625 C 1.160156 -2.863281 1.101562 -2.617188 1.09375 -2.328125 L 5.171875 -2.328125 L 5.171875 -2.625 C 5.171875 -2.800781 5.132812 -2.96875 5.0625 -3.125 C 5 -3.289062 4.890625 -3.429688 4.734375 -3.546875 C 4.585938 -3.671875 4.390625 -3.765625 4.140625 -3.828125 C 3.898438 -3.898438 3.601562 -3.9375 3.25 -3.9375 Z M 2.96875 -0.265625 C 3.3125 -0.265625 3.609375 -0.285156 3.859375 -0.328125 C 4.117188 -0.367188 4.335938 -0.421875 4.515625 -0.484375 C 4.703125 -0.546875 4.851562 -0.609375 4.96875 -0.671875 C 5.09375 -0.742188 5.1875 -0.800781 5.25 -0.84375 C 5.269531 -0.84375 5.285156 -0.84375 5.296875 -0.84375 C 5.328125 -0.84375 5.359375 -0.820312 5.390625 -0.78125 C 5.429688 -0.75 5.453125 -0.710938 5.453125 -0.671875 C 5.453125 -0.628906 5.429688 -0.597656 5.390625 -0.578125 C 5.359375 -0.546875 5.289062 -0.492188 5.1875 -0.421875 C 5.082031 -0.347656 4.929688 -0.273438 4.734375 -0.203125 C 4.535156 -0.140625 4.289062 -0.0820312 4 -0.03125 C 3.707031 0.0195312 3.359375 0.046875 2.953125 0.046875 C 2.535156 0.046875 2.179688 -0.00390625 1.890625 -0.109375 C 1.597656 -0.210938 1.359375 -0.359375 1.171875 -0.546875 C 0.992188 -0.734375 0.863281 -0.957031 0.78125 -1.21875 C 0.695312 -1.476562 0.65625 -1.765625 0.65625 -2.078125 C 0.65625 -2.492188 0.722656 -2.84375 0.859375 -3.125 C 0.992188 -3.40625 1.175781 -3.628906 1.40625 -3.796875 C 1.632812 -3.960938 1.90625 -4.078125 2.21875 -4.140625 C 2.539062 -4.210938 2.882812 -4.25 3.25 -4.25 C 4 -4.25 4.554688 -4.101562 4.921875 -3.8125 C 5.296875 -3.53125 5.484375 -3.125 5.484375 -2.59375 C 5.484375 -2.539062 5.476562 -2.484375 5.46875 -2.421875 C 5.46875 -2.359375 5.460938 -2.296875 5.453125 -2.234375 C 5.441406 -2.179688 5.425781 -2.132812 5.40625 -2.09375 C 5.382812 -2.0625 5.367188 -2.046875 5.359375 -2.046875 L 3.765625 -2.046875 L 1.09375 -2.109375 C 1.09375 -1.765625 1.132812 -1.476562 1.21875 -1.25 C 1.300781 -1.019531 1.421875 -0.832031 1.578125 -0.6875 C 1.734375 -0.539062 1.925781 -0.429688 2.15625 -0.359375 C 2.382812 -0.296875 2.65625 -0.265625 2.96875 -0.265625 Z M 2.96875 -0.265625 "/></g></g></g><g fill="#4d433a" fill-opacity="1"><g transform="translate(245.852169, 200.783069)"><g><path d="M 4.046875 -4.125 C 4.085938 -4.113281 4.113281 -4.09375 4.125 -4.0625 C 4.144531 -4.03125 4.15625 -3.992188 4.15625 -3.953125 C 4.15625 -3.910156 4.140625 -3.867188 4.109375 -3.828125 C 4.078125 -3.785156 4.03125 -3.765625 3.96875 -3.765625 C 3.957031 -3.765625 3.945312 -3.765625 3.9375 -3.765625 C 3.9375 -3.773438 3.925781 -3.78125 3.90625 -3.78125 C 3.769531 -3.820312 3.632812 -3.851562 3.5 -3.875 C 3.375 -3.894531 3.238281 -3.90625 3.09375 -3.90625 C 2.875 -3.90625 2.664062 -3.882812 2.46875 -3.84375 C 2.28125 -3.800781 2.109375 -3.738281 1.953125 -3.65625 C 1.796875 -3.570312 1.660156 -3.460938 1.546875 -3.328125 C 1.429688 -3.191406 1.34375 -3.035156 1.28125 -2.859375 L 1.28125 -0.375 C 1.28125 -0.28125 1.269531 -0.191406 1.25 -0.109375 C 1.226562 -0.0351562 1.171875 0 1.078125 0 C 1.023438 0 0.984375 -0.0078125 0.953125 -0.03125 C 0.921875 -0.0507812 0.894531 -0.078125 0.875 -0.109375 C 0.863281 -0.148438 0.859375 -0.191406 0.859375 -0.234375 C 0.859375 -0.285156 0.859375 -0.332031 0.859375 -0.375 L 0.859375 -3.84375 C 0.859375 -3.925781 0.867188 -3.992188 0.890625 -4.046875 C 0.921875 -4.109375 0.988281 -4.140625 1.09375 -4.140625 C 1.175781 -4.140625 1.226562 -4.109375 1.25 -4.046875 C 1.269531 -3.992188 1.28125 -3.925781 1.28125 -3.84375 L 1.28125 -3.21875 C 1.34375 -3.4375 1.441406 -3.613281 1.578125 -3.75 C 1.722656 -3.882812 1.882812 -3.988281 2.0625 -4.0625 C 2.238281 -4.132812 2.414062 -4.179688 2.59375 -4.203125 C 2.78125 -4.234375 2.945312 -4.25 3.09375 -4.25 C 3.226562 -4.25 3.34375 -4.242188 3.4375 -4.234375 C 3.539062 -4.222656 3.628906 -4.210938 3.703125 -4.203125 C 3.773438 -4.191406 3.835938 -4.175781 3.890625 -4.15625 C 3.941406 -4.144531 3.992188 -4.132812 4.046875 -4.125 Z M 4.046875 -4.125 "/></g></g></g><g fill="#4d433a" fill-opacity="1"><g transform="translate(250.228796, 200.783069)"><g/></g></g><g fill="#4d433a" fill-opacity="1"><g transform="translate(252.717356, 200.783069)"><g><path d="M 4.78125 -0.75 L 8.140625 -5.796875 C 8.191406 -5.878906 8.242188 -5.9375 8.296875 -5.96875 C 8.359375 -6.007812 8.414062 -6.03125 8.46875 -6.03125 C 8.53125 -6.03125 8.582031 -6 8.625 -5.9375 C 8.675781 -5.882812 8.703125 -5.816406 8.703125 -5.734375 L 8.703125 -0.375 C 8.703125 -0.269531 8.6875 -0.179688 8.65625 -0.109375 C 8.632812 -0.0351562 8.570312 0 8.46875 0 C 8.375 0 8.3125 -0.0351562 8.28125 -0.109375 C 8.257812 -0.179688 8.25 -0.269531 8.25 -0.375 L 8.25 -5.1875 L 5.046875 -0.46875 C 4.960938 -0.34375 4.875 -0.28125 4.78125 -0.28125 C 4.6875 -0.28125 4.597656 -0.34375 4.515625 -0.46875 L 1.3125 -5.1875 L 1.3125 -0.375 C 1.3125 -0.269531 1.296875 -0.179688 1.265625 -0.109375 C 1.242188 -0.0351562 1.1875 0 1.09375 0 C 0.988281 0 0.921875 -0.0351562 0.890625 -0.109375 C 0.867188 -0.179688 0.859375 -0.269531 0.859375 -0.375 L 0.859375 -5.734375 C 0.859375 -5.816406 0.878906 -5.882812 0.921875 -5.9375 C 0.972656 -6 1.03125 -6.03125 1.09375 -6.03125 C 1.144531 -6.03125 1.195312 -6.007812 1.25 -5.96875 C 1.3125 -5.9375 1.367188 -5.878906 1.421875 -5.796875 Z M 4.78125 -0.75 "/></g></g></g><g fill="#4d433a" fill-opacity="1"><g transform="translate(262.282084, 200.783069)"><g><path d="M 3.359375 0.046875 C 2.859375 0.046875 2.4375 0 2.09375 -0.09375 C 1.75 -0.195312 1.472656 -0.335938 1.265625 -0.515625 C 1.054688 -0.703125 0.90625 -0.925781 0.8125 -1.1875 C 0.71875 -1.445312 0.671875 -1.742188 0.671875 -2.078125 C 0.671875 -2.460938 0.722656 -2.789062 0.828125 -3.0625 C 0.929688 -3.332031 1.09375 -3.554688 1.3125 -3.734375 C 1.539062 -3.910156 1.820312 -4.039062 2.15625 -4.125 C 2.488281 -4.207031 2.890625 -4.25 3.359375 -4.25 C 3.816406 -4.25 4.210938 -4.207031 4.546875 -4.125 C 4.890625 -4.039062 5.171875 -3.910156 5.390625 -3.734375 C 5.609375 -3.554688 5.769531 -3.332031 5.875 -3.0625 C 5.988281 -2.789062 6.046875 -2.460938 6.046875 -2.078125 C 6.046875 -1.742188 6 -1.445312 5.90625 -1.1875 C 5.8125 -0.925781 5.65625 -0.703125 5.4375 -0.515625 C 5.226562 -0.335938 4.953125 -0.195312 4.609375 -0.09375 C 4.265625 0 3.847656 0.046875 3.359375 0.046875 Z M 3.359375 -0.265625 C 3.679688 -0.265625 3.960938 -0.285156 4.203125 -0.328125 C 4.441406 -0.378906 4.644531 -0.445312 4.8125 -0.53125 C 4.976562 -0.625 5.113281 -0.726562 5.21875 -0.84375 C 5.320312 -0.957031 5.398438 -1.082031 5.453125 -1.21875 C 5.515625 -1.351562 5.554688 -1.492188 5.578125 -1.640625 C 5.597656 -1.785156 5.609375 -1.929688 5.609375 -2.078125 C 5.609375 -2.410156 5.5625 -2.691406 5.46875 -2.921875 C 5.382812 -3.160156 5.25 -3.351562 5.0625 -3.5 C 4.882812 -3.65625 4.648438 -3.765625 4.359375 -3.828125 C 4.078125 -3.898438 3.742188 -3.9375 3.359375 -3.9375 C 2.960938 -3.9375 2.617188 -3.898438 2.328125 -3.828125 C 2.046875 -3.765625 1.8125 -3.65625 1.625 -3.5 C 1.445312 -3.351562 1.3125 -3.160156 1.21875 -2.921875 C 1.132812 -2.691406 1.09375 -2.410156 1.09375 -2.078125 C 1.09375 -1.929688 1.101562 -1.785156 1.125 -1.640625 C 1.144531 -1.492188 1.1875 -1.351562 1.25 -1.21875 C 1.3125 -1.082031 1.390625 -0.957031 1.484375 -0.84375 C 1.585938 -0.726562 1.722656 -0.625 1.890625 -0.53125 C 2.054688 -0.445312 2.257812 -0.378906 2.5 -0.328125 C 2.738281 -0.285156 3.023438 -0.265625 3.359375 -0.265625 Z M 3.359375 -0.265625 "/></g></g></g><g fill="#4d433a" fill-opacity="1"><g transform="translate(268.990377, 200.783069)"><g><path d="M 3.359375 0.046875 C 2.859375 0.046875 2.4375 0 2.09375 -0.09375 C 1.75 -0.195312 1.472656 -0.335938 1.265625 -0.515625 C 1.054688 -0.703125 0.90625 -0.925781 0.8125 -1.1875 C 0.71875 -1.445312 0.671875 -1.742188 0.671875 -2.078125 C 0.671875 -2.460938 0.722656 -2.789062 0.828125 -3.0625 C 0.929688 -3.332031 1.09375 -3.554688 1.3125 -3.734375 C 1.539062 -3.910156 1.820312 -4.039062 2.15625 -4.125 C 2.488281 -4.207031 2.890625 -4.25 3.359375 -4.25 C 3.816406 -4.25 4.210938 -4.207031 4.546875 -4.125 C 4.890625 -4.039062 5.171875 -3.910156 5.390625 -3.734375 C 5.609375 -3.554688 5.769531 -3.332031 5.875 -3.0625 C 5.988281 -2.789062 6.046875 -2.460938 6.046875 -2.078125 C 6.046875 -1.742188 6 -1.445312 5.90625 -1.1875 C 5.8125 -0.925781 5.65625 -0.703125 5.4375 -0.515625 C 5.226562 -0.335938 4.953125 -0.195312 4.609375 -0.09375 C 4.265625 0 3.847656 0.046875 3.359375 0.046875 Z M 3.359375 -0.265625 C 3.679688 -0.265625 3.960938 -0.285156 4.203125 -0.328125 C 4.441406 -0.378906 4.644531 -0.445312 4.8125 -0.53125 C 4.976562 -0.625 5.113281 -0.726562 5.21875 -0.84375 C 5.320312 -0.957031 5.398438 -1.082031 5.453125 -1.21875 C 5.515625 -1.351562 5.554688 -1.492188 5.578125 -1.640625 C 5.597656 -1.785156 5.609375 -1.929688 5.609375 -2.078125 C 5.609375 -2.410156 5.5625 -2.691406 5.46875 -2.921875 C 5.382812 -3.160156 5.25 -3.351562 5.0625 -3.5 C 4.882812 -3.65625 4.648438 -3.765625 4.359375 -3.828125 C 4.078125 -3.898438 3.742188 -3.9375 3.359375 -3.9375 C 2.960938 -3.9375 2.617188 -3.898438 2.328125 -3.828125 C 2.046875 -3.765625 1.8125 -3.65625 1.625 -3.5 C 1.445312 -3.351562 1.3125 -3.160156 1.21875 -2.921875 C 1.132812 -2.691406 1.09375 -2.410156 1.09375 -2.078125 C 1.09375 -1.929688 1.101562 -1.785156 1.125 -1.640625 C 1.144531 -1.492188 1.1875 -1.351562 1.25 -1.21875 C 1.3125 -1.082031 1.390625 -0.957031 1.484375 -0.84375 C 1.585938 -0.726562 1.722656 -0.625 1.890625 -0.53125 C 2.054688 -0.445312 2.257812 -0.378906 2.5 -0.328125 C 2.738281 -0.285156 3.023438 -0.265625 3.359375 -0.265625 Z M 3.359375 -0.265625 "/></g></g></g><g fill="#4d433a" fill-opacity="1"><g transform="translate(275.69867, 200.783069)"><g><path d="M 3.0625 0.046875 C 2.738281 0.046875 2.429688 0.015625 2.140625 -0.046875 C 1.847656 -0.109375 1.59375 -0.222656 1.375 -0.390625 C 1.15625 -0.554688 0.984375 -0.769531 0.859375 -1.03125 C 0.734375 -1.300781 0.671875 -1.644531 0.671875 -2.0625 C 0.671875 -2.457031 0.722656 -2.796875 0.828125 -3.078125 C 0.929688 -3.359375 1.082031 -3.582031 1.28125 -3.75 C 1.488281 -3.925781 1.738281 -4.050781 2.03125 -4.125 C 2.332031 -4.207031 2.675781 -4.25 3.0625 -4.25 C 3.445312 -4.25 3.773438 -4.222656 4.046875 -4.171875 C 4.316406 -4.128906 4.546875 -4.070312 4.734375 -4 C 4.929688 -3.9375 5.085938 -3.863281 5.203125 -3.78125 C 5.328125 -3.707031 5.425781 -3.632812 5.5 -3.5625 L 5.5 -5.640625 C 5.5 -5.691406 5.5 -5.738281 5.5 -5.78125 C 5.5 -5.832031 5.503906 -5.875 5.515625 -5.90625 C 5.535156 -5.945312 5.554688 -5.976562 5.578125 -6 C 5.609375 -6.019531 5.648438 -6.03125 5.703125 -6.03125 C 5.753906 -6.03125 5.796875 -6.019531 5.828125 -6 C 5.859375 -5.976562 5.878906 -5.953125 5.890625 -5.921875 C 5.910156 -5.890625 5.921875 -5.847656 5.921875 -5.796875 C 5.921875 -5.753906 5.921875 -5.707031 5.921875 -5.65625 L 5.921875 -0.296875 C 5.921875 -0.179688 5.898438 -0.101562 5.859375 -0.0625 C 5.816406 -0.0195312 5.769531 0 5.71875 0 C 5.65625 0 5.601562 -0.015625 5.5625 -0.046875 C 5.519531 -0.0859375 5.5 -0.164062 5.5 -0.28125 L 5.5 -1.03125 C 5.457031 -0.875 5.382812 -0.738281 5.28125 -0.625 C 5.1875 -0.507812 5.066406 -0.410156 4.921875 -0.328125 C 4.785156 -0.253906 4.632812 -0.191406 4.46875 -0.140625 C 4.300781 -0.0859375 4.132812 -0.046875 3.96875 -0.015625 C 3.800781 0.00390625 3.640625 0.0195312 3.484375 0.03125 C 3.328125 0.0390625 3.1875 0.046875 3.0625 0.046875 Z M 3.0625 -0.265625 C 3.28125 -0.265625 3.515625 -0.28125 3.765625 -0.3125 C 4.023438 -0.34375 4.269531 -0.394531 4.5 -0.46875 C 4.738281 -0.550781 4.945312 -0.660156 5.125 -0.796875 C 5.300781 -0.941406 5.425781 -1.128906 5.5 -1.359375 L 5.5 -3.3125 C 5.414062 -3.375 5.304688 -3.441406 5.171875 -3.515625 C 5.046875 -3.585938 4.882812 -3.65625 4.6875 -3.71875 C 4.5 -3.78125 4.269531 -3.832031 4 -3.875 C 3.738281 -3.914062 3.425781 -3.9375 3.0625 -3.9375 C 2.71875 -3.9375 2.421875 -3.898438 2.171875 -3.828125 C 1.921875 -3.753906 1.710938 -3.640625 1.546875 -3.484375 C 1.390625 -3.328125 1.273438 -3.128906 1.203125 -2.890625 C 1.128906 -2.660156 1.09375 -2.382812 1.09375 -2.0625 C 1.09375 -1.71875 1.144531 -1.429688 1.25 -1.203125 C 1.351562 -0.972656 1.492188 -0.785156 1.671875 -0.640625 C 1.847656 -0.503906 2.054688 -0.40625 2.296875 -0.34375 C 2.535156 -0.289062 2.789062 -0.265625 3.0625 -0.265625 Z M 3.0625 -0.265625 "/></g></g></g></svg>